<?xml version="1.0" encoding="UTF-8"?><svg id="Layer_2" xmlns="http://www.w3.org/2000/svg" viewBox="0 0 1168.24 178.51"><defs><style>.cls-1{fill:#fff;}</style></defs><g id="Layer_1-2"><path class="cls-1" d="M209.84,140.19c9.95-7.25,16.79-17.88,20.5-31.88l26.32,5.57c-4.55,19.57-14.34,34.92-29.35,46.06-15.02,11.13-32.65,16.7-52.89,16.7-24.63,0-45.51-8.52-62.63-25.56-17.12-17.04-25.68-37.96-25.68-62.76s8.56-45.51,25.68-62.63C128.91,8.56,149.78,0,174.42,0c20.08,0,37.62,5.49,52.64,16.45,15.02,10.96,24.89,25.73,29.61,44.28l-26.32,7.59c-3.71-14-10.55-24.63-20.5-31.88-9.95-7.26-21.76-10.88-35.43-10.88-17.21,0-31.67,6.03-43.4,18.09-11.73,12.06-17.59,26.95-17.59,44.66s5.86,32.6,17.59,44.66c11.72,12.06,26.19,18.09,43.4,18.09,13.67,0,25.48-3.63,35.43-10.88Z"/><path class="cls-1" d="M388.24,173.09l-60.48-67.57h-24.55v67.57h-27.07V3.54h79.71c17.38,0,31.42,4.68,42.13,14.04,10.71,9.36,16.07,21.72,16.07,37.07,0,14.51-4.85,26.36-14.55,35.55-9.7,9.19-22.65,14.21-38.84,15.06l61.24,67.82h-33.66ZM355.85,80.98c9.28,0,16.79-2.4,22.52-7.21,5.74-4.81,8.6-11.18,8.6-19.11s-2.86-14.34-8.6-19.23c-5.73-4.89-13.24-7.34-22.52-7.34h-52.64v52.89h52.64Z"/><path class="cls-1" d="M559.82,173.09h-126.28V3.54h126.02v24.55h-98.94v47.83h91.35v24.29h-91.35v48.33h99.2v24.55Z"/><path class="cls-1" d="M688.74,102.99c5.82,7.42,8.73,15.69,8.73,24.8,0,14.51-5.82,26.28-17.46,35.3-11.64,9.03-26.82,13.54-45.55,13.54s-34.2-4.51-45.93-13.54c-11.72-9.03-17.58-20.79-17.58-35.3,0-9.11,2.95-17.38,8.85-24.8,5.91-7.42,14.34-12.82,25.31-16.2-9.45-3.54-16.66-8.9-21.63-16.07-4.98-7.17-7.47-15.48-7.47-24.93,0-13.66,5.36-24.72,16.07-33.15,10.71-8.44,24.84-12.65,42.38-12.65s31.38,4.22,42.01,12.65c10.63,8.43,15.94,19.48,15.94,33.15,0,9.28-2.45,17.55-7.34,24.8-4.89,7.26-12.06,12.65-21.51,16.2,10.97,3.37,19.36,8.77,25.18,16.2ZM658.12,146.27c6.5-4.89,9.74-11.64,9.74-20.24s-3.16-14.85-9.49-19.74c-6.32-4.89-14.38-7.34-24.17-7.34s-17.75,2.44-23.91,7.34c-6.16,4.89-9.23,11.64-9.23,20.25s3.08,15.06,9.23,19.86c6.16,4.81,14.05,7.21,23.66,7.21s17.67-2.45,24.16-7.34ZM611.82,28.98c-5.82,4.64-8.73,11.01-8.73,19.1s2.87,14.17,8.6,18.73c5.73,4.56,13.16,6.83,22.27,6.83s16.91-2.36,22.9-7.09c5.99-4.72,8.98-11.05,8.98-18.98s-3.04-13.96-9.11-18.6c-6.08-4.64-13.58-6.96-22.53-6.96s-16.57,2.32-22.39,6.96Z"/><path class="cls-1" d="M713.92,173.09V3.54h27.07v169.55h-27.07Z"/><path class="cls-1" d="M851.58,173.09h-26.06L751.88,3.54h29.86l56.68,132.85L895.11,3.54h30.11l-73.64,169.55Z"/><path class="cls-1" d="M1062.12,173.09h-126.28V3.54h126.02v24.55h-98.94v47.83h91.35v24.29h-91.35v48.33h99.2v24.55Z"/><path class="cls-1" d="M9.56,144.69h56.5v10.65H9.56v23.17H0v-57.09h9.56v23.27Z"/><path class="cls-1" d="M66.07,57.44v10.55h-28.4v35.69h28.4v10.55H0v-10.55h28v-35.69H0v-10.55h66.07Z"/><path class="cls-1" d="M66.07,0v49.2H0V.1h9.56v38.55h18.64V3.06h9.47v35.6h18.83V0h9.56Z"/><path class="cls-1" d="M1152.44,121.81c-3.15-4.31-7.76-7.28-13.83-8.89l2.41-11.42c8.49,1.98,15.14,6.22,19.98,12.73,4.83,6.51,7.24,14.16,7.24,22.94,0,10.68-3.69,19.74-11.08,27.16-7.39,7.43-16.46,11.14-27.22,11.14s-19.74-3.71-27.16-11.14c-7.43-7.43-11.14-16.48-11.14-27.16,0-8.71,2.38-16.32,7.13-22.83,4.75-6.51,11.16-10.79,19.21-12.84l3.29,11.42c-6.07,1.61-10.68,4.57-13.83,8.89-3.15,4.32-4.72,9.44-4.72,15.37,0,7.46,2.62,13.74,7.85,18.82,5.23,5.09,11.69,7.63,19.37,7.63s14.14-2.54,19.37-7.63c5.23-5.09,7.85-11.36,7.85-18.82,0-5.93-1.57-11.05-4.72-15.37Z"/><path class="cls-1" d="M1102.83,28.08c7.46-7.43,16.54-11.14,27.22-11.14s19.72,3.71,27.11,11.14c7.39,7.43,11.08,16.52,11.08,27.27s-3.69,19.83-11.08,27.22c-7.39,7.39-16.43,11.08-27.11,11.08s-19.85-3.69-27.27-11.08c-7.43-7.39-11.14-16.46-11.14-27.22s3.73-19.85,11.19-27.27ZM1149.37,36.48c-5.19-5.12-11.63-7.68-19.32-7.68s-14.25,2.56-19.48,7.68c-5.23,5.12-7.85,11.42-7.85,18.88s2.62,13.74,7.85,18.82c5.23,5.09,11.72,7.63,19.48,7.63s14.12-2.54,19.32-7.63c5.19-5.09,7.79-11.36,7.79-18.82s-2.6-13.76-7.79-18.88Z"/><path class="cls-1" d="M1155.24,2.8c1.35-1.35,2.98-2.03,4.88-2.03s3.64.68,4.99,2.03c1.36,1.35,2.03,3.06,2.03,5.1s-.68,3.77-2.03,5.16c-1.35,1.39-3.02,2.09-4.99,2.09s-3.53-.7-4.88-2.09c-1.35-1.39-2.03-3.11-2.03-5.16s.68-3.75,2.03-5.1Z"/></g></svg>